PathFileType	4	(X/Y/Z)	1H_nor_slow_left.trc
DataRate	CameraRate	NumFrames	NumMarkers	Units	OrigDataRate	OrigDataStartFrame	OrigNumFrames
250.00	250.00	17	18	mm	250.00	1	20480
Frame#	Time	c7	r_should	l_should	clavicle	r_upa	r_elb_l	r_elb_m	r_low	r_wri_l	r_wri_m	r_met	l_upa	l_elb_l	l_elb_m	l_low	l_wri_l	l_wri_m	l_met
	X1	Y1	Z1	X2	Y2	Z2	X3	Y3	Z3	X4	Y4	Z4	X5	Y5	Z5	X6	Y6	Z6	X7	Y7	Z7	X8	Y8	Z8	X9	Y9	Z9	X10	Y10	Z10	X11	Y11	Z11	X12	Y12	Z12	X13	Y13	Z13	X14	Y14	Z14	X15	Y15	Z15	X16	Y16	Z16	X17	Y17	Z17	X18	Y18	Z18
1	0.00000	1249.82629	1418.94360	190.03268	1300.76807	1357.25330	356.59360	1287.58337	1359.92883	13.63695	1372.14343	1284.57397	187.15318	1288.15552	1159.19324	441.00247	1273.65430	1082.16711	472.63297	1201.77844	1050.78345	418.54126	1310.55640	957.63635	464.05664	1351.09729	844.21350	440.60236	1281.07385	831.11609	474.04019	1368.77295	776.22925	477.69775	1286.71240	1142.28662	-40.00596	1296.52600	1034.38196	-59.42508	1236.36548	1021.67401	26.25807	1302.67114	911.52081	-53.49419	1316.06812	790.77655	-24.86898	1241.67542	789.26971	-51.09113	1308.42542	713.72620	-71.51371
2	0.00400	1249.93274	1419.00024	190.01599	1300.70386	1357.28613	356.61148	1287.71753	1359.90039	13.63464	1372.14307	1284.53577	187.20934	1288.05286	1159.24353	441.04953	1274.09204	1081.79834	472.82742	1201.68030	1050.82642	418.59061	1310.47827	957.72125	464.16785	1351.06201	844.30859	440.74911	1281.02625	831.19501	474.15637	1368.72986	776.33966	477.86417	1286.98059	1142.24438	-40.00179	1296.86707	1034.33569	-59.38732	1236.50024	1021.63568	26.14637	1303.08130	911.38013	-53.49220	1316.40479	790.75873	-24.66032	1242.08704	789.19830	-51.10147	1308.95337	713.71814	-71.33472
3	0.00800	1250.04248	1419.05627	189.99016	1300.64038	1357.31812	356.62549	1287.86194	1359.87256	13.62609	1372.15320	1284.50317	187.27748	1287.93909	1159.30212	441.09613	1275.21851	1080.88159	473.17358	1201.58777	1050.86304	418.64185	1310.39026	957.82196	464.28238	1351.02502	844.39545	440.88443	1280.98389	831.27130	474.26593	1368.68262	776.45087	478.03842	1287.26404	1142.20813	-39.99772	1297.21887	1034.29480	-59.34299	1236.63110	1021.59955	26.03564	1303.49756	911.21063	-53.51760	1316.74365	790.75079	-24.45930	1242.50806	789.12524	-51.11857	1309.49121	713.71332	-71.15887
4	0.01200	1250.15662	1419.12195	189.95917	1300.57629	1357.35352	356.63876	1287.99622	1359.82520	13.64637	1372.16882	1284.46265	187.34325	1287.82581	1159.36108	441.15231	1274.84937	1081.13538	473.18274	1201.50012	1050.90527	418.68430	1310.30396	957.91675	464.40506	1350.98291	844.48431	441.01431	1280.93860	831.35150	474.37433	1368.64062	776.56140	478.21063	1287.55347	1142.17090	-39.99381	1297.57996	1034.24976	-59.28874	1236.76221	1021.56708	25.91985	1303.83557	911.22345	-53.27137	1317.08728	790.74530	-24.26153	1242.93945	789.04797	-51.11830	1310.02832	713.71686	-70.98475
5	0.01600	1250.27368	1419.18799	189.93472	1300.51660	1357.39014	356.65131	1288.15063	1359.78333	13.66617	1372.19019	1284.42480	187.41086	1287.72253	1159.42310	441.20212	1274.09900	1081.68201	473.10770	1201.41333	1050.94312	418.72537	1310.22571	958.01947	464.53482	1350.94543	844.57526	441.15506	1280.89001	831.42792	474.47986	1368.60376	776.66986	478.38184	1287.84839	1142.13086	-39.98679	1297.92786	1034.20081	-59.23259	1236.89661	1021.52942	25.81523	1304.27625	911.01660	-53.38047	1317.43518	790.73920	-24.07102	1243.38135	788.96857	-51.10329	1310.58472	713.72485	-70.80381
6	0.02000	1250.39673	1419.24963	189.91135	1300.45776	1357.42834	356.66425	1288.31604	1359.73547	13.69633	1372.21216	1284.38672	187.47375	1287.60669	1159.47644	441.25107	1274.93213	1080.99438	473.39587	1201.32727	1050.97925	418.76337	1310.14941	958.11780	464.65558	1350.90808	844.66541	441.30875	1280.83728	831.50031	474.58765	1368.57178	776.77673	478.55624	1288.14294	1142.09229	-39.98549	1298.26733	1034.15698	-59.18491	1237.03088	1021.48413	25.71530	1304.60571	911.01294	-53.16230	1317.78882	790.74622	-23.88049	1243.81714	788.89532	-51.09374	1311.16394	713.73541	-70.60786
7	0.02400	1250.52698	1419.31348	189.88741	1300.39685	1357.46423	356.67804	1288.50183	1359.68567	13.72461	1371.36694	1284.63049	187.33017	1287.48975	1159.53052	441.31012	1275.05212	1080.87183	473.51675	1201.24023	1051.01501	418.79825	1310.06616	958.20490	464.77689	1350.86633	844.75281	441.45261	1280.78394	831.57587	474.68979	1368.53406	776.88159	478.73550	1288.44165	1142.05774	-39.98441	1298.60205	1034.11206	-59.14891	1237.15637	1021.44232	25.61543	1304.88025	911.13208	-52.71682	1318.14990	790.75525	-23.66776	1244.24475	788.82288	-51.07434	1311.74390	713.74365	-70.41104
8	0.02800	1250.66833	1419.37903	189.85510	1300.33704	1357.49927	356.69388	1288.70410	1359.64185	13.74043	1369.44055	1285.22424	186.92862	1287.37988	1159.58643	441.37033	1274.98071	1080.89062	473.59622	1201.15015	1051.05530	418.82825	1309.97791	958.27997	464.89658	1350.82336	844.83673	441.58890	1280.72510	831.64313	474.78635	1368.49121	776.98840	478.91504	1288.74097	1142.02393	-39.98978	1298.93799	1034.07312	-59.12433	1237.28650	1021.40308	25.50283	1305.22998	911.11816	-52.50464	1318.52551	790.75085	-23.44016	1244.68860	788.74188	-51.03546	1312.32446	713.75934	-70.22004
9	0.03200	1250.81677	1419.44263	189.82256	1300.28345	1357.53406	356.70953	1288.91345	1359.59912	13.76529	1368.97839	1285.34436	186.88646	1287.27100	1159.63977	441.42526	1274.87549	1080.93237	473.67358	1201.06860	1051.09229	418.85623	1309.87830	958.35266	465.01361	1350.77783	844.91705	441.74319	1280.65552	831.71216	474.88770	1368.44128	777.09625	479.10944	1289.04346	1141.99219	-39.99905	1299.26160	1034.04126	-59.11235	1237.42725	1021.36353	25.39063	1305.62451	910.99597	-52.50494	1318.91174	790.72906	-23.21074	1245.14233	788.66528	-50.99450	1312.91882	713.77789	-70.02457
10	0.03600	1250.96851	1419.50562	189.78964	1300.22998	1357.57056	356.72510	1289.12329	1359.56384	13.78345	1368.88794	1285.34912	186.93384	1287.16211	1159.69348	441.48322	1274.19763	1081.43665	473.63309	1200.98071	1051.13513	418.88159	1309.77893	958.42255	465.12799	1350.72729	844.98468	441.88986	1280.57910	831.79785	475.01056	1368.38977	777.20203	479.31152	1289.34021	1141.96484	-40.01163	1299.57153	1034.00940	-59.09544	1237.56799	1021.33228	25.28688	1306.05505	910.77649	-52.72833	1319.32166	790.71576	-22.97259	1245.60193	788.58313	-50.93731	1313.52136	713.79889	-69.81834
11	0.04000	1251.12317	1419.57373	189.76131	1300.17798	1357.61279	356.75000	1289.33533	1359.53394	13.79499	1368.89526	1285.33167	187.00609	1287.04675	1159.75623	441.54730	1272.81445	1082.50208	473.42746	1200.88672	1051.18237	418.90555	1309.67993	958.49774	465.23929	1350.67712	845.05988	442.01862	1280.49780	831.88983	475.14172	1368.33533	777.30786	479.50919	1289.62756	1141.94604	-40.03180	1299.86670	1033.98584	-59.08448	1237.71326	1021.31140	25.18812	1306.42334	910.69543	-52.70370	1319.72754	790.71936	-22.74615	1246.06335	788.50641	-50.86963	1314.14221	713.83264	-69.60815
12	0.04400	1251.28052	1419.64539	189.73532	1300.12878	1357.65991	356.76556	1289.55774	1359.49902	13.82309	1368.92908	1285.31677	187.08205	1286.92542	1159.82178	441.61172	1272.37500	1082.82312	473.42764	1200.78992	1051.23120	418.93207	1309.58032	958.57562	465.35007	1350.63428	845.14410	442.15524	1280.41418	831.98224	475.26950	1368.27466	777.42413	479.71280	1289.91418	1141.93005	-40.05059	1300.16565	1033.97424	-59.08354	1237.85242	1021.29065	25.08796	1306.78467	910.66107	-52.61596	1320.13208	790.72974	-22.52571	1246.53918	788.44312	-50.80882	1314.76917	713.88257	-69.40157
13	0.04800	1251.43542	1419.71863	189.70543	1300.07654	1357.70911	356.77988	1289.78491	1359.46924	13.84568	1368.97424	1285.30554	187.16518	1286.81116	1159.89429	441.67181	1272.16528	1082.95325	473.47058	1200.69958	1051.28577	418.95612	1309.48169	958.65106	465.46277	1350.58789	845.23895	442.29501	1280.33337	832.07617	475.40164	1368.20801	777.53925	479.91223	1290.20264	1141.91675	-40.06585	1300.48132	1033.97058	-59.07354	1238.00061	1021.27936	24.97912	1307.15027	910.62524	-52.50543	1320.54407	790.73761	-22.30594	1247.02466	788.39563	-50.76460	1315.40088	713.93475	-69.18434
14	0.05200	1251.58838	1419.79248	189.67349	1300.02734	1357.76111	356.78711	1290.02820	1359.45349	13.85123	1369.02844	1285.29626	187.24722	1286.69690	1159.96631	441.72229	1272.00891	1083.04333	473.52280	1200.60950	1051.33887	418.96527	1309.38220	958.73145	465.56885	1350.52747	845.32843	442.43610	1280.24988	832.16766	475.52094	1368.13184	777.64539	480.10324	1290.48926	1141.90686	-40.08061	1300.80334	1033.97156	-59.06642	1238.16748	1021.28210	24.86661	1307.51208	910.59912	-52.40623	1320.96814	790.76276	-22.10280	1247.51917	788.35657	-50.73131	1316.04236	713.99170	-68.96206
15	0.05600	1251.73975	1419.86633	189.63115	1299.97681	1357.81909	356.79504	1290.27332	1359.43799	13.84894	1369.08728	1285.29236	187.32780	1286.57861	1160.02295	441.76770	1271.86987	1083.12842	473.58041	1200.51721	1051.40076	418.96902	1309.27856	958.81567	465.67145	1350.46436	845.42456	442.59076	1280.16577	832.25970	475.63751	1368.04736	777.74945	480.29639	1290.77905	1141.89539	-40.09586	1301.12183	1033.97876	-59.07145	1238.34595	1021.27979	24.75319	1307.83630	910.64368	-52.12989	1321.40942	790.80273	-21.87456	1248.01831	788.31598	-50.69868	1316.70374	714.04462	-68.72807
16	0.06000	1251.89160	1419.94031	189.59286	1299.92969	1357.87585	356.80551	1290.49744	1359.42480	13.85987	1369.15015	1285.29663	187.40242	1286.46228	1160.09949	441.81436	1271.74121	1083.20862	473.64435	1200.42664	1051.46509	418.97134	1309.16663	958.90363	465.78329	1350.39868	845.51587	442.73486	1280.07471	832.35547	475.74335	1367.95618	777.85211	480.48862	1291.06360	1141.89404	-40.11669	1301.44336	1033.99255	-59.07341	1238.52185	1021.28113	24.63612	1308.15979	910.72955	-51.81231	1321.85828	790.84235	-21.63524	1248.51843	788.28448	-50.67758	1317.37207	714.10175	-68.49358
17	0.06400	1252.04370	1420.00879	189.56148	1299.88330	1357.93738	356.81128	1290.70679	1359.40930	13.88553	1369.21606	1285.30725	187.47743	1286.34192	1160.17932	441.86710	1271.60864	1083.29919	473.70737	1200.33594	1051.52942	418.96924	1309.04797	958.98639	465.90344	1350.32495	845.60864	442.88699	1279.98035	832.44958	475.86111	1367.85205	777.96112	480.68637	1291.34363	1141.89856	-40.13668	1301.77698	1034.00464	-59.08267	1238.70728	1021.28638	24.51265	1308.59741	910.62378	-51.99540	1322.30396	790.89484	-21.40342	1249.03845	788.26764	-50.67389	1318.04175	714.17395	-68.25921
